<?xml version="1.0" standalone="no"?>
<!DOCTYPE svg PUBLIC "-//W3C//DTD SVG 20010904//EN"
 "http://www.w3.org/TR/2001/REC-SVG-20010904/DTD/svg10.dtd">
<svg version="1.0" xmlns="http://www.w3.org/2000/svg"
 width="512.000000pt" height="512.000000pt" viewBox="0 0 512.000000 512.000000"
 preserveAspectRatio="xMidYMid meet">
<metadata>
Created by potrace 1.14, written by Peter Selinger 2001-2017
</metadata>
<g transform="translate(0.000000,512.000000) scale(0.100000,-0.100000)"
fill="#000000" stroke="none">
<path d="M1334 4839 c-2 -4 -23 -7 -46 -8 -24 0 -54 -3 -68 -6 -33 -7 -100
-17 -125 -19 -11 0 -22 -3 -25 -6 -3 -3 -39 -16 -80 -29 -79 -25 -218 -84
-260 -111 -14 -9 -52 -34 -85 -55 -131 -85 -283 -232 -365 -354 -19 -29 -43
-61 -52 -72 -10 -10 -18 -25 -18 -33 0 -8 -4 -17 -9 -20 -11 -7 -84 -157 -84
-173 0 -7 -5 -13 -10 -13 -6 0 -8 -3 -5 -6 4 -3 -1 -22 -9 -42 -9 -20 -22 -66
-30 -102 -8 -36 -16 -74 -19 -85 -32 -143 -36 -362 -9 -495 3 -14 8 -41 11
-60 3 -19 8 -42 11 -50 3 -8 7 -24 9 -35 2 -11 6 -31 8 -45 2 -14 14 -61 26
-105 12 -44 24 -92 27 -107 3 -16 9 -28 14 -28 5 0 6 -7 3 -15 -4 -8 -1 -15 7
-15 7 0 10 -3 6 -6 -3 -3 3 -28 13 -54 10 -26 16 -51 13 -54 -4 -3 -1 -6 6 -6
7 0 9 -4 6 -10 -3 -5 -1 -10 5 -10 6 0 8 -4 5 -10 -3 -5 -2 -10 4 -10 6 0 8
-7 5 -15 -4 -8 -1 -15 5 -15 6 0 8 -7 5 -15 -4 -8 -1 -15 6 -15 6 0 9 -4 6 -9
-3 -5 1 -14 9 -21 8 -7 12 -16 9 -21 -3 -5 0 -9 5 -9 6 0 11 -6 11 -12 0 -16
82 -182 93 -186 4 -2 5 -8 1 -13 -3 -5 -1 -9 4 -9 5 0 12 -8 16 -17 3 -10 11
-27 18 -38 60 -93 88 -137 88 -141 0 -9 63 -99 74 -106 6 -4 7 -8 3 -8 -5 0
-2 -7 5 -15 29 -32 38 -45 38 -52 0 -5 8 -16 18 -25 27 -26 42 -46 42 -57 0
-5 3 -11 8 -13 13 -6 72 -87 72 -99 0 -7 3 -10 6 -6 4 3 23 -16 43 -42 43 -58
124 -151 202 -232 30 -33 53 -59 50 -59 -3 0 8 -10 23 -22 16 -13 39 -34 50
-47 50 -56 234 -229 294 -276 14 -11 33 -27 42 -35 37 -34 129 -109 185 -151
33 -24 66 -50 73 -57 7 -6 17 -12 20 -12 4 0 18 -10 32 -22 14 -13 37 -29 53
-37 15 -8 27 -18 27 -23 0 -4 7 -8 15 -8 9 0 18 -6 21 -14 3 -8 16 -17 30 -20
13 -4 24 -11 24 -16 0 -6 7 -10 15 -10 8 0 15 -4 15 -10 0 -5 7 -10 15 -10 7
0 19 -8 24 -18 6 -9 11 -14 11 -10 0 4 24 -7 53 -24 77 -46 142 -81 237 -128
124 -62 156 -76 181 -79 5 0 8 -5 5 -9 -2 -4 4 -9 15 -10 54 -5 77 -3 104 8
17 8 32 14 35 15 3 1 23 10 45 20 22 10 42 19 45 19 20 5 299 154 310 166 3 3
26 16 53 30 26 13 47 28 47 32 0 5 6 8 14 8 8 0 16 3 18 8 2 4 42 33 90 65 88
59 188 132 221 161 9 9 21 16 26 16 5 0 11 3 13 8 2 4 28 27 58 52 85 70 111
93 147 127 18 18 33 30 33 28 0 -3 17 11 38 31 113 108 191 184 219 216 17 20
34 34 37 31 3 -4 6 -2 6 4 0 5 19 30 43 54 114 122 227 255 227 268 0 6 4 11
8 11 5 0 21 18 38 40 16 22 39 53 52 68 38 45 42 51 42 57 0 3 11 18 24 32 13
14 30 37 38 52 7 14 18 31 24 37 19 21 154 242 154 253 0 6 3 11 8 11 4 0 18
23 31 50 14 28 29 50 33 50 4 0 7 3 6 8 -2 9 14 47 58 138 19 40 35 77 35 81
1 5 5 14 11 21 6 6 7 12 2 12 -5 0 -3 4 4 9 7 4 14 18 15 29 1 12 5 22 10 22
4 0 6 4 2 9 -3 5 -1 12 3 15 5 3 15 27 22 53 7 27 16 53 20 58 8 11 58 198 65
243 3 15 14 69 25 120 33 154 42 320 25 452 -8 65 -45 241 -55 265 -9 22 -42
110 -41 110 0 0 -2 10 -5 23 -4 12 -10 22 -15 22 -5 0 -9 9 -9 19 0 11 -7 26
-15 35 -8 8 -15 22 -15 31 0 8 -7 18 -15 21 -8 4 -13 9 -11 13 6 8 -86 145
-139 207 -52 61 -187 194 -196 194 -5 0 -19 11 -33 25 -14 14 -29 25 -34 25
-4 0 -18 9 -30 20 -12 12 -22 18 -22 15 0 -3 -10 3 -22 15 -12 11 -27 20 -34
20 -7 0 -14 3 -16 8 -8 19 -247 117 -313 129 -16 3 -37 9 -45 13 -9 5 -36 11
-60 14 -25 3 -58 8 -74 11 -16 3 -57 7 -91 9 -34 2 -68 7 -75 11 -9 6 -11 4
-5 -4 6 -10 3 -11 -12 -3 -11 7 -25 7 -35 1 -11 -6 -19 -5 -23 1 -5 8 -11 7
-21 -1 -11 -9 -14 -9 -14 0 0 7 -5 9 -12 5 -7 -5 -27 -9 -45 -11 -45 -3 -93
-10 -128 -18 -16 -4 -37 -8 -45 -10 -8 -2 -17 -4 -20 -5 -3 -1 -9 -3 -15 -5
-5 -1 -13 -3 -17 -5 -5 -1 -16 -3 -25 -5 -20 -2 -29 -5 -123 -42 -110 -44
-272 -134 -341 -190 -106 -87 -201 -183 -274 -278 -13 -18 -16 -18 -27 -4 -59
75 -81 99 -135 155 -35 35 -68 64 -74 64 -5 0 -7 5 -4 10 3 6 1 10 -4 10 -10
0 -35 18 -65 46 -16 15 -124 84 -173 111 -168 91 -379 155 -553 168 -30 2 -60
4 -65 5 -6 1 -12 1 -15 0 -12 -4 -70 -5 -70 0 0 7 -51 6 -56 -1z"/>
</g>
</svg>
